<svg xmlns="http://www.w3.org/2000/svg" width="84" height="84" viewBox="0 0 84 84">
  <defs>
    <style>
      .cls-1 {
        fill: #999;
      }

      .cls-2 {
        fill: none;
      }
    </style>
  </defs>
  <g id="组_286" data-name="组 286" transform="translate(-172.268 -32.268)">
    <g id="组_284" data-name="组 284" transform="translate(180.454 40.454)">
      <path id="路径_78" data-name="路径 78" class="cls-1" d="M3.564,14.821a1.525,1.525,0,1,0,.021,3.048h0a17.717,17.717,0,0,1,4.9.93,24.015,24.015,0,0,1,10.127,6.488,1.6,1.6,0,0,0,1.167.495,1.623,1.623,0,0,0,1.069-.4,1.487,1.487,0,0,0,.1-2.151C13,14.842,3.953,14.825,3.564,14.821Z" transform="translate(-2 39.37)"/>
      <path id="路径_79" data-name="路径 79" class="cls-1" d="M32.675,14.865a27.211,27.211,0,0,0-20.065,8.28,1.483,1.483,0,0,0,.08,2.151,1.627,1.627,0,0,0,2.236-.072,23.766,23.766,0,0,1,11.679-6.67,20.9,20.9,0,0,1,5.854-.647l.118,0a1.525,1.525,0,1,0,.1-3.048Z" transform="translate(30.871 39.444)"/>
      <path id="路径_80" data-name="路径 80" class="cls-1" d="M65.429,37.737c-2.185-5.14-7.063-9.844-10.914-13.293a20.078,20.078,0,0,0,8.12-9.291,1.486,1.486,0,0,0-.448-1.75C57.533,9.671,50.931,6.463,43.6,4.371,35.943,2.185,28.25,1.48,21.943,2.384c-6.805.972-12,3.8-15.047,8.183a2.5,2.5,0,0,0-.148.2c-.393.6-1.547,3.035-1.678,3.31-.249.52-.6,1.272-.866,1.9-.127.287-.22.511-.283.685a2.731,2.731,0,0,0-.123.444,15.9,15.9,0,0,0-.38,6.294,1.432,1.432,0,0,0-.025.3A51.108,51.108,0,0,0,6.6,38.9a67,67,0,0,0,7.38,14.663,73.254,73.254,0,0,0,14.206,15.69,1.622,1.622,0,0,0,2.232-.156,1.485,1.485,0,0,0-.165-2.147A70.376,70.376,0,0,1,16.694,51.994,64.028,64.028,0,0,1,9.639,38.041c-.431-1.213-.812-2.392-1.137-3.525,8.158,10.491,23.7,18.133,34.66,19.6a1.923,1.923,0,0,0,.22.017,1.594,1.594,0,0,0,1.331-.706c2.845-4.3,3.842-8.834,2.866-12.122a54.617,54.617,0,0,0,16.852-1.53,1.57,1.57,0,0,0,.964-.807A1.471,1.471,0,0,0,65.429,37.737ZM8.261,13.027a1.586,1.586,0,0,1-.735-.114A1.592,1.592,0,0,0,8.261,13.027Zm-1.61,3.534a1.353,1.353,0,0,0-.245-.271A1.464,1.464,0,0,1,6.651,16.561Zm38.333,21.5a1.594,1.594,0,0,0-1.572.85,1.479,1.479,0,0,0,.275,1.72c1.839,1.856,1.336,6.175-1.112,10.313a54.742,54.742,0,0,1-17.427-6.56C18.63,40.645,13.257,36,10.011,31.3s-4.3-9.244-3.136-13.492a1.159,1.159,0,0,0,.038-.165c.309-.845,2.05-4.464,2.468-5.191l.085-.11C12.027,8.6,16.381,6.256,22.408,5.4c5.863-.841,13.065-.165,20.289,1.894a53.352,53.352,0,0,1,16.531,7.735,17.7,17.7,0,0,1-8.094,7.786,1.511,1.511,0,0,0-.833,1.15,1.489,1.489,0,0,0,.5,1.323c3.381,2.988,8.318,7.346,10.909,12A57.871,57.871,0,0,1,44.984,38.063Z" transform="translate(2.082 -2)"/>
    </g>
    <rect id="矩形_1836" data-name="矩形 1836" class="cls-2" width="84" height="84" transform="translate(172.268 32.268)"/>
  </g>
</svg>
