<svg xmlns="http://www.w3.org/2000/svg" width="84" height="84" viewBox="0 0 84 84">
  <defs>
    <style>
      .cls-1 {
        fill: #ff5258;
      }

      .cls-2 {
        fill: none;
      }
    </style>
  </defs>
  <g id="组_283" data-name="组 283" transform="translate(-3450.24 -2520.24)">
    <path id="路径_77" data-name="路径 77" class="cls-1" d="M23.174,58.953a2.631,2.631,0,0,1-1.826-.7C14.988,52.126,4.7,52.068,4.484,52.068H4.469a2.124,2.124,0,1,1-.029-4.2C4.947,47.839,17.1,47.85,25,55.448a1.9,1.9,0,0,1-.195,2.969A2.656,2.656,0,0,1,23.174,58.953Zm16.4,0a2.686,2.686,0,0,1-1.664-.562,1.9,1.9,0,0,1-.132-2.972c8.178-7.587,20.082-7.579,20.552-7.561a2.124,2.124,0,1,1-.022,4.2H58.29c-.2,0-10.284.055-16.919,6.216A2.638,2.638,0,0,1,39.578,58.949ZM35.265,48.258H27.513a2.691,2.691,0,0,1-.713-.1A27.174,27.174,0,0,1,6.96,36.509C1.7,28.823.494,18.866,3.966,11.732a2.478,2.478,0,0,1,2.208-1.293l.735,0a36.548,36.548,0,0,1,12.973,2.252A31.92,31.92,0,0,1,29.614,2.525a2.5,2.5,0,0,1,.65-.349h0a2.826,2.826,0,0,1,2.326.165,2.33,2.33,0,0,1,.334.228A31.4,31.4,0,0,1,42.591,12.8a36.457,36.457,0,0,1,13.271-2.362l.75.007a2.468,2.468,0,0,1,2.208,1.29c3.472,7.138,2.267,17.095-3,24.781A27.193,27.193,0,0,1,35.985,48.17,3.3,3.3,0,0,1,35.265,48.258ZM31.37,60.782a2.292,2.292,0,0,1-2.443-2.1V46.153a2.292,2.292,0,0,1,2.443-2.1,2.293,2.293,0,0,1,2.447,2.1V58.681A2.3,2.3,0,0,1,31.37,60.782Z" transform="translate(3460.847 2530.848)"/>
    <rect id="矩形_1835" data-name="矩形 1835" class="cls-2" width="84" height="84" transform="translate(3450.24 2520.24)"/>
  </g>
</svg>
