<svg xmlns="http://www.w3.org/2000/svg" width="20" height="20" viewBox="0 0 20 20">
  <defs>
    <style>
      .cls-1 {
        fill: #57d679;
      }

      .cls-2 {
        fill: #2ba3ff;
      }

      .cls-3 {
        fill: none;
      }
    </style>
  </defs>
  <g id="组_296" data-name="组 296" transform="translate(66 -555)">
    <g id="组_292" data-name="组 292" transform="translate(-66 555.5)">
      <path id="路径_1" data-name="路径 1" class="cls-1" d="M15.128,15.5H4.872A1.886,1.886,0,0,1,3,13.608V11.76l.363-.088a1.573,1.573,0,0,0,0-3.051L3,8.533V6.392A1.886,1.886,0,0,1,4.872,4.5H15.128A1.886,1.886,0,0,1,17,6.392V8.563l-.435.029a1.576,1.576,0,0,0,0,3.139L17,11.76v1.863A1.883,1.883,0,0,1,15.128,15.5ZM3.943,12.493v1.13a.94.94,0,0,0,.929.938H15.128a.94.94,0,0,0,.929-.938V12.6a2.519,2.519,0,0,1,0-4.869V6.392a.941.941,0,0,0-.929-.939H4.872a.941.941,0,0,0-.929.939V7.829a2.528,2.528,0,0,1,0,4.664Z" transform="translate(0 0)"/>
      <path id="路径_2" data-name="路径 2" class="cls-2" d="M11.255,7.653h.928v4.708h-.928Z" transform="translate(0 0)"/>
    </g>
    <rect id="矩形_317" data-name="矩形 317" class="cls-3" width="20" height="20" transform="translate(-66 555)"/>
  </g>
</svg>
