<svg xmlns="http://www.w3.org/2000/svg" xmlns:xlink="http://www.w3.org/1999/xlink" width="70" height="93" viewBox="0 0 70 93">
  <defs>
    <style>
      .cls-1, .cls-10 {
        fill: #57d679;
      }

      .cls-1, .cls-12, .cls-4, .cls-7 {
        opacity: 0.1;
      }

      .cls-2 {
        fill: url(#linear-gradient);
      }

      .cls-3 {
        fill: #efb7b9;
      }

      .cls-5 {
        fill: #dce6f2;
      }

      .cls-6 {
        fill: #965d7b;
      }

      .cls-8 {
        fill: #444053;
      }

      .cls-9 {
        fill: #a36468;
      }

      .cls-11 {
        opacity: 0.05;
      }

      .cls-12 {
        fill: #fff;
      }

      .cls-13 {
        fill: #a8a8a8;
      }

      .cls-14 {
        opacity: 0.2;
      }
    </style>
    <linearGradient id="linear-gradient" y1="0.5" x2="1" y2="0.5" gradientUnits="objectBoundingBox">
      <stop offset="0" stop-color="gray" stop-opacity="0.251"/>
      <stop offset="0.54" stop-color="gray" stop-opacity="0.122"/>
      <stop offset="1" stop-color="gray" stop-opacity="0.102"/>
    </linearGradient>
  </defs>
  <g id="组_284" data-name="组 284" transform="translate(0)">
    <ellipse id="椭圆_10" data-name="椭圆 10" class="cls-1" cx="24.716" cy="4.682" rx="24.716" ry="4.682" transform="translate(5.308 83.636)"/>
    <path id="路径_77" data-name="路径 77" class="cls-2" d="M361.917,187.547l-4.3-2.83h0l2.168-3.152-11.355-.884-4.08,3.081-5.108-2.8-4.26.5-.051-1.1a30.238,30.238,0,0,0-.352-3.412c.018-.343.031-.736.029-1.163a10.737,10.737,0,0,0-1.347-5.783l.253-2.217-2.049-2.364a15.055,15.055,0,0,1,1.123-1.845c.07-.1.14-.195.216-.288a5.028,5.028,0,0,0,4.758-4.934,3.082,3.082,0,0,0-.014-.36,1.275,1.275,0,0,0-.015-.145l.785.411c.049.069.105.137.167.218h0l.013.015.079.095.025.029c.028.033.057.064.087.1l.02.022c.074.081.153.163.237.244a.248.248,0,0,1,.028.026l.105.1.029.026c.09.078.185.153.281.225l.031.022.121.081.039.025c.046.027.094.056.14.082l.017.01c.055.029.111.056.167.082l.028.011.14.058.044.015c.049.016.1.032.147.045l.031.008c.062.015.124.027.187.037h.007a1.56,1.56,0,0,0,.18.018h.041a1.583,1.583,0,0,0,.161,0h.035a1.7,1.7,0,0,0,.2-.023,2.249,2.249,0,0,0,.884-.31.765.765,0,0,0,.18-.163.634.634,0,0,0-.028-.752h0c-.109-.255-.82-.434-.82-.434s-2.246-.915-2.246-1.645-.561-4.512-6.357-5.376c0,0-3.77-.207-4.83,1.764l-.022.23c-.312.19-.57.573-.877.685a1.456,1.456,0,0,0-.38.137v-.026h0a.355.355,0,0,0-.086.108,1.077,1.077,0,0,0-.116.411,1.525,1.525,0,0,1-.184.5,1.111,1.111,0,0,1-.084.126h0l-.024.037a1.047,1.047,0,0,0,.477-.075,2.274,2.274,0,0,1-.14.548.468.468,0,0,0,.432-.252v-.011l.018-.025a1.138,1.138,0,0,0,.087-.2l-.015.016c.028-.089.053-.18.084-.267a.415.415,0,0,1,.069-.137.345.345,0,0,1,.291-.095l-.058,1.188h.025a1.605,1.605,0,0,1-.124.249c-.2.315-.561.53-.695.876a1.26,1.26,0,0,0-.065.518c0,.1.013.207.021.31v-.008a1.132,1.132,0,0,1-.126.755c-.1.151-.271.265-.328.436a.415.415,0,0,0-.021.148,1.628,1.628,0,0,0,.1.44.019.019,0,0,0,0-.008.654.654,0,0,1,.024.323c-.063.274-.4.5-.387.765a.288.288,0,0,0,.015.1.564.564,0,0,0,.317.274,1.259,1.259,0,0,0,.713.153.951.951,0,0,0,.267-.089c-.1.221-.2.439-.3.645-.015.033-.032.066-.049.1,0,0-.867-.566-1.36.588a2.524,2.524,0,0,0-.3.773,1.8,1.8,0,0,1-.1.318,2.079,2.079,0,0,1-.938.822c-1,.449-5.064,5.393-5.136,6.673a7.306,7.306,0,0,1-.258,1.477,8.591,8.591,0,0,0-.241,3.493,6.549,6.549,0,0,0,.248,1.114,24.436,24.436,0,0,1,.719,3.665l.466,4.141a11.507,11.507,0,0,0,.076,1.712c-.476.53-2.386,2.741-1.656,3.343a2.75,2.75,0,0,0,2.1.3,17.1,17.1,0,0,0-1.293,4.414,12.259,12.259,0,0,0,.842,5.619c.6,1.009,2.609,3.6,2.609,3.6s-.094,3.549.623,4.839a13.83,13.83,0,0,1,1.006,3.965s.669,2.258.334,3.089.622,1.521-.383,2.073-2.291,13-2.291,13-.518,8.158,0,8.573a.53.53,0,0,0,.088.051v2.741s-.359.576,1.1.692c1,.078,3.837.255,5.52.358l1.3.079s3.088.6,4.452,0,3.783-.587,3.423-2.172a4.427,4.427,0,0,0-.191-.635c-.394-.984-1.064-1.1-2.3-1.37-.072-.015-.14-.029-.2-.04-1.3-.221-1.726.37-2.455-.4a11.353,11.353,0,0,0-3.335-1.645c.017-.049.038-.1.055-.148a1.037,1.037,0,0,1-.521-.248l1.86.115,1.107.067s2.625.511,3.79,0,3.214-.5,2.908-1.845a3.8,3.8,0,0,0-.161-.54c-.335-.836-.905-.928-1.954-1.159-.06-.012-.117-.025-.173-.034-1.1-.188-1.467.314-2.086-.339a9.686,9.686,0,0,0-2.807-1.392c0-.3-.421-.737-.686-1.172-.312-.507.264-2.282.264-2.282l.328-7.363a1.485,1.485,0,0,1,.393-.11s1.485-1.384,1.15-2.859a9.259,9.259,0,0,1-.107-1.347,6.975,6.975,0,0,0,1.352-1.5c.312-.656,0-3.837,0-3.837V198.893l2.484.245,2.254.226.686.069,2.254.222,5.181.511,4.668-.863,2.02-.373,4.153-.767V188.24Zm-34.192-32.878-.289-.03C327.531,154.643,327.632,154.66,327.725,154.669Z" transform="translate(-307.044 -151.145)"/>
    <path id="路径_78" data-name="路径 78" class="cls-3" d="M491.886,432.635c-1.4,2.008-6.449.945-6.449.945l-3.91-3.659-.526-.5.883-1.875s.281.077.762.215C485.173,428.5,493.07,430.947,491.886,432.635Z" transform="translate(-447.286 -389.729)"/>
    <path id="路径_79" data-name="路径 79" class="cls-4" d="M482.642,427.765a8.232,8.232,0,0,1-1.116,2.156l-.526-.5.883-1.875S482.166,427.627,482.642,427.765Z" transform="translate(-447.185 -389.688)"/>
    <path id="路径_80" data-name="路径 80" class="cls-5" d="M376.119,278.059a6,6,0,0,0-3.427,5.524,64.728,64.728,0,0,0,.825,7.545s-.737,5.908,2.331,7.43,5.908,2.775,5.908,2.775,4.8.517,5.4.73,2.46-3.048,2.117-3.557-4.75-1.573-5.311-2.421a4.686,4.686,0,0,0-1.86-1.371s-1.34-.811-1.432-1.544a3.333,3.333,0,0,1,.352-1.6c.09-.321.317-3.425.317-3.425S382.849,277.1,376.119,278.059Z" transform="translate(-353.885 -260.754)"/>
    <path id="路径_81" data-name="路径 81" class="cls-4" d="M386.546,370.39s-4.945.828-4.466,2.559A10.483,10.483,0,0,1,386.546,370.39Z" transform="translate(-361.875 -340.359)"/>
    <path id="路径_82" data-name="路径 82" class="cls-4" d="M400.554,375.38s-2.719,2.219-2.187,2.333S400.554,375.38,400.554,375.38Z" transform="translate(-375.875 -344.664)"/>
    <path id="路径_83" data-name="路径 83" class="cls-4" d="M421.069,380.89s-.728,1.492-.281,1.391S421.069,380.89,421.069,380.89Z" transform="translate(-395.131 -349.411)"/>
    <path id="路径_84" data-name="路径 84" class="cls-4" d="M390.822,300.326l-.3-.086a.858.858,0,0,0,.039-.613c-.344-.508-4.747-1.572-5.307-2.421a4.662,4.662,0,0,0-1.86-1.371s-1.34-.811-1.432-1.544a3.332,3.332,0,0,1,.352-1.6c.09-.321.317-3.426.317-3.426s1.509-11.044-5.221-10.086a6,6,0,0,0-3.429,5.526,64.543,64.543,0,0,0,.827,7.545s-.737,5.908,2.331,7.43,5.908,2.775,5.908,2.775,4.8.515,5.4.73c.226.081.634-.338,1.034-.915l.227.212,3.91,3.658s5.046,1.065,6.449-.943C401.252,303.506,393.355,301.059,390.822,300.326Z" transform="translate(-355.098 -261.748)"/>
    <path id="路径_85" data-name="路径 85" class="cls-6" d="M377.195,168.5a1.193,1.193,0,0,0-.389.15c-.14.116-.14.316-.175.49a1.612,1.612,0,0,1-.281.671,1.009,1.009,0,0,0,.467-.077,2.4,2.4,0,0,1-.14.561.455.455,0,0,0,.421-.257,2.7,2.7,0,0,0,.175-.493.406.406,0,0,1,.067-.14c.129-.153.369-.084.568-.065a.933.933,0,0,0,.853-.41c.212-.321.225-1.144-.281-1.231C377.954,167.609,377.626,168.336,377.195,168.5Z" transform="translate(-356.951 -165.367)"/>
    <g id="组_282" data-name="组 282" class="cls-7" transform="translate(19.42 3.243)">
      <path id="路径_86" data-name="路径 86" d="M378.142,174.459c.013-.069.021-.14.036-.209h0a.823.823,0,0,0-.175.49,1.539,1.539,0,0,1-.083.3A1.608,1.608,0,0,0,378.142,174.459Z" transform="translate(-377.721 -174.25)"/>
      <path id="路径_87" data-name="路径 87" d="M376.966,180.561a2.334,2.334,0,0,0,.14-.561,1,1,0,0,1-.445.077,1.626,1.626,0,0,1-.161.281,1,1,0,0,0,.466-.076,2.335,2.335,0,0,1-.14.561.456.456,0,0,0,.421-.257,1.048,1.048,0,0,0,.084-.2A.421.421,0,0,1,376.966,180.561Z" transform="translate(-376.5 -179.193)"/>
      <path id="路径_88" data-name="路径 88" d="M384.491,175.094c-.2-.02-.441-.088-.57.065a.434.434,0,0,0-.067.14c-.013.036-.024.074-.034.112.133-.105.349-.049.531-.031a.938.938,0,0,0,.853-.41.779.779,0,0,0,.094-.22A.935.935,0,0,1,384.491,175.094Z" transform="translate(-382.793 -174.68)"/>
    </g>
    <path id="路径_89" data-name="路径 89" class="cls-5" d="M312.8,201l2.14,2.574-.279,2.6-2.587-4.049Z" transform="translate(-288.412 -186.644)"/>
    <path id="路径_90" data-name="路径 90" class="cls-4" d="M314.935,203.574l-.262,2.444-.017.154-2.334-3.655-.251-.394.073-.114.651-1.009.145.174Z" transform="translate(-288.412 -186.644)"/>
    <path id="路径_91" data-name="路径 91" class="cls-3" d="M381.326,208.033a4.291,4.291,0,0,0-2.018,1.787,15.249,15.249,0,0,0-1.089,1.872c-.2.4-.372.776-.516,1.107l-.1.236c-.244.577-.38.963-.38.963s-5.544-4.169-4.667-4.449c.295-.094.682-.726,1.065-1.521l.048-.1c.243-.511.481-1.081.693-1.617.434-1.1.755-2.059.755-2.059S383.536,207.4,381.326,208.033Z" transform="translate(-353.635 -196.796)"/>
    <path id="路径_92" data-name="路径 92" class="cls-8" d="M459.26,202.58s1.28,2.316,3,2,1.012-1.244,1.012-1.244Z" transform="translate(-428.461 -195.361)"/>
    <path id="路径_93" data-name="路径 93" class="cls-9" d="M378.441,740.255c-1.134.518-3.7,0-3.7,0l-1.081-.067c-1.4-.09-3.753-.241-4.584-.309-1.213-.1-.915-.6-.915-.6v-3l5.884-1.491a10.6,10.6,0,0,1,2.963,1.491c.6.662.959.153,2.038.344.053.01.109.021.168.035,1.025.234,1.58.327,1.909,1.176a3.948,3.948,0,0,1,.159.547C381.586,739.75,379.573,739.74,378.441,740.255Z" transform="translate(-349.928 -655.105)"/>
    <path id="路径_94" data-name="路径 94" class="cls-4" d="M381.124,749.071a4.4,4.4,0,0,1-.662.34c-.772.352-1.506.782-2.286,1.114a5.347,5.347,0,0,1-2.466.507,3.678,3.678,0,0,0-1.317-.014,3.042,3.042,0,0,0-.731.406c-1.4-.09-3.753-.241-4.584-.309-1.213-.1-.915-.6-.915-.6v-.351c.044,0,.093-.013.149-.017a2.648,2.648,0,0,1,.856.128c.609.166,1.215.328,1.825.491a1.441,1.441,0,0,1,.7-.9,2.237,2.237,0,0,1,1.131-.26c.945.013,1.839.46,2.782.505a1.533,1.533,0,0,0,.771-.129c.129-.065.243-.159.369-.23a2.7,2.7,0,0,1,.636-.215,14,14,0,0,0,1.818-.587c.168-.066.365-.185.342-.365-.029-.239-.4-.267-.5-.486a.281.281,0,0,1,.011-.248c.053.01.109.021.168.035C380.24,748.13,380.8,748.222,381.124,749.071Z" transform="translate(-349.926 -666.341)"/>
    <path id="路径_95" data-name="路径 95" class="cls-9" d="M358.758,781.133c-1.333.609-4.351,0-4.351,0l-1.27-.074c-1.645-.105-4.416-.281-5.394-.364-1.427-.118-1.077-.7-1.077-.7v-3.538l6.924-1.754s2.737.936,3.486,1.754c.712.779,1.123.18,2.4.4.063.011.129.025.2.041,1.206.281,1.86.386,2.246,1.385a4.5,4.5,0,0,1,.187.644C362.454,780.537,360.091,780.525,358.758,781.133Z" transform="translate(-331.39 -689.414)"/>
    <path id="路径_96" data-name="路径 96" class="cls-4" d="M361.916,791.549a5.231,5.231,0,0,1-.779.4c-.908.414-1.773.919-2.691,1.311a6.308,6.308,0,0,1-2.9.6A4.233,4.233,0,0,0,354,793.84a3.576,3.576,0,0,0-.863.483c-1.645-.105-4.416-.281-5.394-.364-1.427-.118-1.077-.7-1.077-.7v-.413a1.746,1.746,0,0,1,.175-.02,3.082,3.082,0,0,1,1.008.15l2.146.578a1.7,1.7,0,0,1,.832-1.054,2.62,2.62,0,0,1,1.332-.306c1.112.015,2.163.542,3.273.6a1.813,1.813,0,0,0,.9-.15c.153-.077.281-.188.435-.271a3.05,3.05,0,0,1,.748-.253,16.811,16.811,0,0,0,2.128-.691c.2-.079.43-.219.4-.429-.035-.281-.476-.314-.592-.573a.338.338,0,0,1,.014-.292c.063.011.129.025.2.041C360.876,790.44,361.53,790.55,361.916,791.549Z" transform="translate(-331.389 -702.678)"/>
    <path id="路径_97" data-name="路径 97" class="cls-8" d="M383.379,647.54,383,656.358s-.561,1.8-.257,2.316.818,1.029.632,1.333-2.432,3.6-3.158,2.334-1.441-6.737-1.441-6.737l.67-6.761Z" transform="translate(-359.058 -580.101)"/>
    <path id="路径_98" data-name="路径 98" class="cls-8" d="M410.235,491l1.041,1.392V504.5s.3,3.228,0,3.895a10.455,10.455,0,0,1-1.848,2l-1.3-6.667.281-7.053Z" transform="translate(-384.36 -444.704)"/>
    <path id="路径_99" data-name="路径 99" class="cls-4" d="M383.379,647.54,383,656.358s-.561,1.8-.257,2.316.818,1.029.632,1.333-2.432,3.6-3.158,2.334-1.441-6.737-1.441-6.737l.67-6.761Z" transform="translate(-359.058 -580.101)"/>
    <path id="路径_100" data-name="路径 100" class="cls-4" d="M410.235,491l1.041,1.392V504.5s.3,3.228,0,3.895a10.455,10.455,0,0,1-1.848,2l-1.3-6.667.281-7.053Z" transform="translate(-384.36 -444.704)"/>
    <path id="路径_101" data-name="路径 101" class="cls-8" d="M341.534,433.569v6.55l-1.169,5.1s-.375,12.3-.048,13.8-1.123,2.9-1.123,2.9-.842.094-.842.748a8.635,8.635,0,0,1-1.4,2.526l.046,3.649s.609,6.831-.327,8.141.327,1.5.327,1.5c-1.169,3.836-6.783,2.947-7.29,2.526s0-8.7,0-8.7,1.255-12.632,2.237-13.193.048-1.263.375-2.105-.327-3.134-.327-3.134a14.444,14.444,0,0,0-.982-4.024c-.7-1.31-.609-4.912-.609-4.912s-1.965-2.62-2.549-3.649a12.938,12.938,0,0,1-.82-5.708,17.935,17.935,0,0,1,1.263-4.48c.218-.546.375-.9.375-.9l.133.035,7.666,2.007Z" transform="translate(-314.447 -393.266)"/>
    <path id="路径_102" data-name="路径 102" class="cls-4" d="M392.957,207.972a4.291,4.291,0,0,0-2.018,1.787h-.157a5.013,5.013,0,0,1-4.351-2.517,4.937,4.937,0,0,1-.441-1c.434-1.1.755-2.059.755-2.059S395.168,207.341,392.957,207.972Z" transform="translate(-365.294 -196.736)"/>
    <path id="路径_103" data-name="路径 103" class="cls-3" d="M394.415,175.444a5.018,5.018,0,1,1-9.387-2.459,4.9,4.9,0,0,1,.531-.766,5.077,5.077,0,0,1,1.154-1.013,5.018,5.018,0,0,1,7.7,3.871C394.411,175.2,394.415,175.322,394.415,175.444Z" transform="translate(-363.924 -167.717)"/>
    <path id="路径_104" data-name="路径 104" class="cls-4" d="M379.952,239.049l-.017.154-2.334-3.649c-.244.577-.38.963-.38.963s-5.544-4.174-4.667-4.455c.295-.094.682-.726,1.065-1.521l.048-.1c.407,1.213,2.772,3.637,3.756,4.608.114.112.208.2.281.272l.15.14.079.079A7.247,7.247,0,0,1,379.952,239.049Z" transform="translate(-353.624 -219.311)"/>
    <path id="路径_105" data-name="路径 105" class="cls-5" d="M337.018,251.182l-.255,8.221-.045,1.464s-3.026-.281-5.85-.59a38.09,38.09,0,0,1-4.747-.674,8.936,8.936,0,0,0-2.035-.448c-.55-.074-.982-.114-.982-.114s-.161.048-.41.093a2.6,2.6,0,0,1-2.048-.3c-.709-.616,1.154-2.855,1.618-3.392l.1-.116-.175-1.621-.456-4.2a25.644,25.644,0,0,0-.7-3.719,6.863,6.863,0,0,1-.243-1.13,9.05,9.05,0,0,1,.236-3.545,7.734,7.734,0,0,0,.253-1.5c.07-1.3,4.035-6.316,5.018-6.772a2.083,2.083,0,0,0,1-1,1.911,1.911,0,0,0,.153-.437c.421-1.825,1.486-1.1,1.486-1.1.257,1.427,4.233,5.206,4.233,5.206l.079.079c.394.4,2.152,2.3,2.027,3.922a4.753,4.753,0,0,0,.265,1.774,30,30,0,0,1,1.382,7.86Z" transform="translate(-308.836 -219.061)"/>
    <path id="路径_106" data-name="路径 106" class="cls-4" d="M386.841,310.45s-.982,2.386-1.719,2.772S387.192,314.036,386.841,310.45Z" transform="translate(-364.404 -288.632)"/>
    <path id="路径_107" data-name="路径 107" class="cls-4" d="M389.626,342.2s-2.246.281-2.246.7S389.626,342.2,389.626,342.2Z" transform="translate(-366.46 -316.018)"/>
    <path id="路径_108" data-name="路径 108" class="cls-4" d="M393.885,361.7s-3.263,6.948-4.176,7.158S393.885,361.7,393.885,361.7Z" transform="translate(-368.387 -332.897)"/>
    <path id="路径_109" data-name="路径 109" class="cls-4" d="M373.957,237.526l-2.7,1.173L368,233.778a1.915,1.915,0,0,0,.153-.437c.421-1.825,1.486-1.1,1.486-1.1.257,1.427,4.233,5.206,4.233,5.206Z" transform="translate(-349.769 -220.737)"/>
    <path id="路径_110" data-name="路径 110" class="cls-5" d="M374.957,235.526l-2.7,1.173L369,231.778a1.914,1.914,0,0,0,.153-.437c.421-1.825,1.486-1.1,1.486-1.1.257,1.427,4.233,5.206,4.233,5.206Z" transform="translate(-350.631 -219.018)"/>
    <path id="路径_111" data-name="路径 111" class="cls-4" d="M345.65,313.892s-3.026-.281-5.85-.589l5.067,1.326v1.544c-.222.2-.414.3-.539.251-.584-.246-5.349-1.018-5.349-1.018s-2.768-1.4-5.755-3.088a2.3,2.3,0,0,1-.211-.132,3.318,3.318,0,0,1-.884-.886,6.286,6.286,0,0,1-.938-2.831,12.241,12.241,0,0,1-.073-1.738,14.241,14.241,0,0,1,.18-1.964,64.574,64.574,0,0,1-.421-7.579,6,6,0,0,1,3.719-5.333c6.772-.6,4.672,10.351,4.672,10.351s-.392,3.088-.5,3.4a3.332,3.332,0,0,0-.438,1.579c.052.737,1.346,1.618,1.346,1.618a4.726,4.726,0,0,1,1.784,1.469c.379.647,2.841,1.524,4.232,2.15Z" transform="translate(-317.794 -272.71)"/>
    <path id="路径_112" data-name="路径 112" class="cls-4" d="M393.85,168.329a1.589,1.589,0,0,1-.14.671,4.153,4.153,0,0,1-.25.5,2.3,2.3,0,0,1-.615.764,3.145,3.145,0,0,1-1.123.39,1.625,1.625,0,0,0-1.015.575,2.013,2.013,0,0,0-.237.688,1.48,1.48,0,0,1-.281.665.552.552,0,0,1-.657.157.664.664,0,0,1-.254-.327,4.691,4.691,0,0,1-.265-1.15,2.446,2.446,0,0,0-.394-1.1.987.987,0,0,0-1.036-.4,1,1,0,0,0-.561.545,3.123,3.123,0,0,0-.212.775q-.261,1.429-.616,2.841a.261.261,0,0,1-.046.107.2.2,0,0,1-.14.059c-.314.042-.616-.178-.933-.154a.536.536,0,0,0-.1.015,5.015,5.015,0,0,1,.507-5.726l.025-.007a1.513,1.513,0,0,0,.561-.354,5.931,5.931,0,0,0,.561-.65l.112-.14a6.4,6.4,0,0,1,1.095-1.04,1.123,1.123,0,0,1,.373-.2,1.106,1.106,0,0,1,.354-.011,8.921,8.921,0,0,0,1.461.055,9.369,9.369,0,0,1,1.026-.1,3.158,3.158,0,0,1,2.208,1.34A2.076,2.076,0,0,1,393.85,168.329Z" transform="translate(-363.859 -163.717)"/>
    <path id="路径_113" data-name="路径 113" class="cls-6" d="M375.46,168.285c-.2.32-.547.538-.679.888-.194.509.133,1.144-.167,1.6-.1.153-.264.267-.32.442-.1.3.166.612.1.917s-.469.561-.362.859a.561.561,0,0,0,.309.281,1.207,1.207,0,0,0,.7.156c.383-.063.668-.439,1.057-.467.316-.022.618.2.932.156a.21.21,0,0,0,.14-.06.242.242,0,0,0,.046-.107q.354-1.411.618-2.841a3.059,3.059,0,0,1,.211-.775,1.006,1.006,0,0,1,.561-.545.99.99,0,0,1,1.036.4,2.431,2.431,0,0,1,.4,1.1,4.752,4.752,0,0,0,.264,1.15.671.671,0,0,0,.255.328.55.55,0,0,0,.655-.157,1.464,1.464,0,0,0,.281-.667,2,2,0,0,1,.237-.686,1.629,1.629,0,0,1,1.015-.575,3.176,3.176,0,0,0,1.123-.392,2.31,2.31,0,0,0,.615-.762,2.244,2.244,0,0,0,.385-1.172,2.151,2.151,0,0,0-.575-1.214,3.155,3.155,0,0,0-2.209-1.339,8.729,8.729,0,0,0-1.026.1,8.782,8.782,0,0,1-1.461-.056,1.149,1.149,0,0,0-.354.013,1.058,1.058,0,0,0-.372.2,6.405,6.405,0,0,0-1.1,1.039,8.044,8.044,0,0,1-.677.786,1.523,1.523,0,0,1-.561.355c-.14.039-.281.011-.414.055C375.707,167.427,375.653,167.968,375.46,168.285Z" transform="translate(-354.986 -162.883)"/>
    <path id="路径_114" data-name="路径 114" class="cls-4" d="M462.259,204.579a2.874,2.874,0,0,1-2.568-1.364,5.507,5.507,0,0,1-.431-.634l3.854.727.156.029S463.979,204.264,462.259,204.579Z" transform="translate(-428.46 -195.361)"/>
    <g id="组_283" data-name="组 283" class="cls-7" transform="translate(19.02 4.331)">
      <path id="路径_115" data-name="路径 115" d="M375.987,210.869a1.169,1.169,0,0,0-.081-.539c0,.014-.013.028-.017.042a1.044,1.044,0,0,0,.073.578A.42.42,0,0,0,375.987,210.869Z" transform="translate(-375.601 -206.354)"/>
      <path id="路径_116" data-name="路径 116" d="M379.047,197.8a3.116,3.116,0,0,0,.011.582A3.129,3.129,0,0,0,379.047,197.8Z" transform="translate(-378.326 -195.582)"/>
      <path id="路径_117" data-name="路径 117" d="M384.432,182.905a2.3,2.3,0,0,1-.615.764,3.135,3.135,0,0,1-1.123.39,1.621,1.621,0,0,0-1.015.575,2.021,2.021,0,0,0-.237.688,1.469,1.469,0,0,1-.281.667.548.548,0,0,1-.655.157.671.671,0,0,1-.255-.328,4.673,4.673,0,0,1-.264-1.15,2.425,2.425,0,0,0-.4-1.1.987.987,0,0,0-1.036-.4,1,1,0,0,0-.561.545,3.059,3.059,0,0,0-.211.775q-.262,1.43-.618,2.841a.243.243,0,0,1-.046.107.211.211,0,0,1-.14.06c-.314.041-.616-.178-.932-.156-.389.028-.674.4-1.057.466a1.186,1.186,0,0,1-.7-.156.75.75,0,0,1-.257-.182.379.379,0,0,0-.052.327.547.547,0,0,0,.309.281,1.186,1.186,0,0,0,.7.156c.383-.062.668-.438,1.057-.466.316-.022.618.2.932.156a.21.21,0,0,0,.14-.06.243.243,0,0,0,.046-.107q.354-1.4.618-2.841a3.059,3.059,0,0,1,.211-.775,1,1,0,0,1,.561-.545.988.988,0,0,1,1.036.4,2.431,2.431,0,0,1,.4,1.1,4.754,4.754,0,0,0,.264,1.15.671.671,0,0,0,.255.328.55.55,0,0,0,.655-.157,1.469,1.469,0,0,0,.281-.667,2.023,2.023,0,0,1,.237-.688,1.635,1.635,0,0,1,1.015-.575,3.2,3.2,0,0,0,1.123-.39,2.3,2.3,0,0,0,.615-.764,2.236,2.236,0,0,0,.385-1.171,1.52,1.52,0,0,0-.017-.16,2.759,2.759,0,0,1-.368.905Z" transform="translate(-373.964 -182)"/>
    </g>
    <path id="路径_118" data-name="路径 118" class="cls-4" d="M397.722,173a4.959,4.959,0,0,1,.625,2.084c-1.251-.7-2.427-1.472-3.02-1.74-1.034-.467-4.9-.4-6.357-.354a4.9,4.9,0,0,1,.531-.766,5.077,5.077,0,0,1,1.158-1.013A5.02,5.02,0,0,1,397.729,173Z" transform="translate(-367.879 -167.724)"/>
    <path id="路径_119" data-name="路径 119" class="cls-4" d="M462.61,203.984a4.761,4.761,0,0,1-2.919-.769,5.505,5.505,0,0,1-.431-.634l3.854.727C463.37,203.481,463.434,203.73,462.61,203.984Z" transform="translate(-428.459 -195.361)"/>
    <path id="路径_120" data-name="路径 120" class="cls-8" d="M390.264,154.041s-3.684-.211-4.72,1.789l-.167,1.773-.281-.031-.056,1.206s5.631-.246,6.912.333,5.263,3.492,6.859,3-.14-.947-.14-.947-2.2-.931-2.2-1.66S395.93,154.918,390.264,154.041Z" transform="translate(-364.528 -153.629)"/>
    <path id="路径_121" data-name="路径 121" class="cls-4" d="M371.63,622.28s2.351,2.281,3.368,2.105C375,624.385,372.121,624.14,371.63,622.28Z" transform="translate(-352.885 -557.74)"/>
    <path id="路径_122" data-name="路径 122" class="cls-4" d="M368.13,629.81s.211,1.173.772,1.058S368.13,629.81,368.13,629.81Z" transform="translate(-349.854 -564.22)"/>
    <path id="路径_123" data-name="路径 123" class="cls-4" d="M376.993,769.53s-3.338,2.6-2.775,2.667S376.993,769.53,376.993,769.53Z" transform="translate(-355.059 -684.97)"/>
    <path id="路径_124" data-name="路径 124" class="cls-10" d="M330.96,336.559l10.807-1.759v10.232l-10.268-.538Z" transform="translate(-304.769 -302.179)"/>
    <path id="路径_125" data-name="路径 125" class="cls-11" d="M330.96,336.559l10.807-1.759v10.232l-10.268-.538Z" transform="translate(-304.769 -302.179)"/>
    <path id="路径_126" data-name="路径 126" class="cls-10" d="M407.96,334.8l12.96.97-.717,8.9-12.243.358Z" transform="translate(-371.226 -302.179)"/>
    <path id="路径_127" data-name="路径 127" class="cls-4" d="M407.96,334.8l12.96.97-.717,8.9-12.243.358Z" transform="translate(-371.226 -302.179)"/>
    <path id="路径_128" data-name="路径 128" class="cls-10" d="M411.945,312.55l-3.985,3.123,12.96.97,2.118-3.2Z" transform="translate(-371.258 -282.916)"/>
    <path id="路径_129" data-name="路径 129" class="cls-10" d="M303.08,315.775l9.729-1.185,4.991,2.837-10.807,1.759Z" transform="translate(-280.751 -284.681)"/>
    <path id="路径_130" data-name="路径 130" class="cls-10" d="M344.136,348.228v13.989l-5.063-.519-2.2-.225-.671-.07-2.2-.226-3.04-.312V347.33l10.806.735Z" transform="translate(-304.793 -313.051)"/>
    <path id="路径_131" data-name="路径 131" class="cls-10" d="M435.431,341.71v13.642l-4.058.779-1.973.379-4.56.876V343.4Z" transform="translate(-385.755 -308.207)"/>
    <path id="路径_132" data-name="路径 132" class="cls-11" d="M435.431,341.71v13.642l-4.058.779-1.973.379-4.56.876V343.4Z" transform="translate(-385.755 -308.207)"/>
    <path id="路径_133" data-name="路径 133" class="cls-10" d="M303.08,350.275l3.913-2.945,13.176.9-1.94,3.267Z" transform="translate(-280.774 -312.935)"/>
    <path id="路径_134" data-name="路径 134" class="cls-12" d="M303.08,350.275l3.913-2.945,13.176.9-1.94,3.267Z" transform="translate(-280.774 -312.935)"/>
    <path id="路径_135" data-name="路径 135" class="cls-10" d="M435.431,341.71,424.84,343.4l3.447,3.088,11.345-1.9Z" transform="translate(-385.82 -308.09)"/>
    <path id="路径_136" data-name="路径 136" class="cls-12" d="M435.431,341.71,424.84,343.4l3.447,3.088,11.345-1.9Z" transform="translate(-385.82 -308.09)"/>
    <path id="路径_137" data-name="路径 137" class="cls-12" d="M459.3,426.072l-1.973.379v-2.915l1.848-.466Z" transform="translate(-413.664 -378.296)"/>
    <path id="路径_138" data-name="路径 138" class="cls-12" d="M375.282,435.96v1.928l-2.2-.225v-1.7Z" transform="translate(-341.017 -389.403)"/>
    <path id="路径_139" data-name="路径 139" class="cls-12" d="M354.821,440.29v1.026l-2.2-.226v-.8Z" transform="translate(-323.374 -393.128)"/>
    <path id="路径_140" data-name="路径 140" class="cls-4" d="M445.116,449.314c-1.509,1.93-6.491.6-6.491.6l-3.7-3.863-.5-.524.983-1.825s.281.093.749.255C438.633,444.823,446.387,447.69,445.116,449.314Z" transform="translate(-407.099 -403.674)"/>
    <path id="路径_141" data-name="路径 141" class="cls-3" d="M444.116,447.314c-1.509,1.93-6.491.6-6.491.6l-3.7-3.863-.5-.524.982-1.825s.281.093.75.255C437.633,442.823,445.387,445.69,444.116,447.314Z" transform="translate(-406.236 -401.947)"/>
    <path id="路径_142" data-name="路径 142" class="cls-4" d="M435.112,441.955a8.3,8.3,0,0,1-1.229,2.093l-.5-.524.982-1.825S434.645,441.793,435.112,441.955Z" transform="translate(-406.123 -401.9)"/>
    <path id="路径_143" data-name="路径 143" class="cls-5" d="M335.6,287.853a6,6,0,0,0-3.719,5.333,64.573,64.573,0,0,0,.421,7.579s-1.053,5.86,1.93,7.544,5.755,3.088,5.755,3.088,4.765.772,5.35,1.018,2.619-2.912,2.3-3.439-4.654-1.825-5.169-2.7a4.674,4.674,0,0,0-1.784-1.468s-1.294-.883-1.346-1.62a3.316,3.316,0,0,1,.438-1.579c.108-.316.5-3.4.5-3.4S342.369,287.249,335.6,287.853Z" transform="translate(-318.662 -269.251)"/>
    <path id="路径_144" data-name="路径 144" class="cls-4" d="M342.1,380.7s-4.983.561-4.6,2.316A10.482,10.482,0,0,1,342.1,380.7Z" transform="translate(-323.439 -349.255)"/>
    <path id="路径_145" data-name="路径 145" class="cls-4" d="M355.849,385.7s-2.828,2.07-2.309,2.211S355.849,385.7,355.849,385.7Z" transform="translate(-337.225 -353.569)"/>
    <path id="路径_146" data-name="路径 146" class="cls-4" d="M376.375,391.7s-.807,1.451-.351,1.375S376.375,391.7,376.375,391.7Z" transform="translate(-356.539 -358.74)"/>
    <path id="路径_147" data-name="路径 147" class="cls-10" d="M719.84,167.378s-5.333-.321-4.71,3.42a.913.913,0,0,0,.474.961s.01-.281.547-.184a2.458,2.458,0,0,0,.58.028,1.2,1.2,0,0,0,.71-.293h0a4.234,4.234,0,0,0,2.084-3.072s.432-.536.421-.674l-.9.386a1.615,1.615,0,0,1,.065,1.19s-.028-1.166-.2-1.14c-.035,0-.467.226-.467.226a2.662,2.662,0,0,1,.129,1.955s.152-1.4-.295-1.874l-.634.371a2.8,2.8,0,0,1,.2,2.124,3.979,3.979,0,0,0-.333-2.034l-.575.448a2.74,2.74,0,0,1,.227,1.945s-.046-1.7-.352-1.833a3.47,3.47,0,0,0-.578.626s.4.842.15,1.279c0,0-.152-1.135-.281-1.141a3.778,3.778,0,0,0-.553,1.263,2.73,2.73,0,0,1,.431-1.339,1.5,1.5,0,0,0-.766.4s.077-.532.89-.578a3.841,3.841,0,0,1,.525-.606,3.291,3.291,0,0,0-1.3.15,1.47,1.47,0,0,1,1.447-.281l.561-.463a4.843,4.843,0,0,0-1.516.015,1.845,1.845,0,0,1,1.669-.121l.618-.369a5.545,5.545,0,0,0-1.447-.125,2.22,2.22,0,0,1,1.628.025l.442-.2s-.665-.131-.859-.152-.2-.074-.2-.074a2.3,2.3,0,0,1,1.248.14A5.507,5.507,0,0,0,719.84,167.378Z" transform="translate(-668.627 -154.567)"/>
    <path id="路径_159" data-name="路径 159" class="cls-10" d="M836.543,205.727s-2.727-4.6-5.474-1.983a.913.913,0,0,0-.531.932s.234-.149.459.349a2.43,2.43,0,0,0,.3.5,1.192,1.192,0,0,0,.64.421h0a4.23,4.23,0,0,0,3.714,0s.685.058.789-.034l-.824-.531a1.614,1.614,0,0,1-.949.721s.95-.678.831-.806c-.025-.027-.449-.262-.449-.262a2.668,2.668,0,0,1-1.544,1.2s1.241-.657,1.385-1.294l-.662-.312a2.8,2.8,0,0,1-1.648,1.356s1.273-.731,1.5-1.415l-.693-.225s-.629,1.123-1.482,1.277c0,0,1.384-.994,1.319-1.318a3.467,3.467,0,0,0-.842-.129s-.47.8-.974.842c0,0,.855-.761.79-.867a3.778,3.778,0,0,0-1.36.253,2.74,2.74,0,0,1,1.352-.393,1.509,1.509,0,0,0-.759-.413s.484-.234.982.413a3.556,3.556,0,0,1,.8.1,3.359,3.359,0,0,0-.852-.991s.657.076,1.037,1.044l.7.211a4.667,4.667,0,0,0-.863-1.246s.66.181,1.036,1.314l.653.3a5.639,5.639,0,0,0-.7-1.263,2.221,2.221,0,0,1,.893,1.363l.411.255s-.264-.625-.356-.8-.053-.211-.053-.211a2.306,2.306,0,0,1,.585,1.112A5.432,5.432,0,0,0,836.543,205.727Z" transform="translate(-791.872 -200.721)"/>
    <path id="路径_160" data-name="路径 160" class="cls-10" d="M722.751,263.178s.14-5.348-3.575-4.594a.915.915,0,0,0-.946.507s.281,0,.2.54a2.461,2.461,0,0,0-.008.581,1.2,1.2,0,0,0,.316.7h0a4.238,4.238,0,0,0,3.141,1.982s.549.414.686.392l-.421-.887a1.62,1.62,0,0,1-1.187.105s1.165-.069,1.133-.24c0-.035-.241-.462-.241-.462a2.656,2.656,0,0,1-1.949.2s1.4.105,1.862-.357l-.392-.622a2.8,2.8,0,0,1-2.117.269,3.989,3.989,0,0,0,2.022-.4l-.467-.561a2.737,2.737,0,0,1-1.935.292s1.7-.1,1.825-.413a3.644,3.644,0,0,0-.646-.561s-.823.421-1.272.194c0,0,1.123-.188,1.13-.313a3.768,3.768,0,0,0-1.286-.511,2.733,2.733,0,0,1,1.354.387,1.509,1.509,0,0,0-.421-.754s.535.06.608.87a3.487,3.487,0,0,1,.623.505,3.281,3.281,0,0,0-.194-1.293,1.456,1.456,0,0,1,.323,1.436l.481.553a4.7,4.7,0,0,0-.066-1.514,1.845,1.845,0,0,1,.177,1.663l.389.6a5.6,5.6,0,0,0,.077-1.451,2.227,2.227,0,0,1,.028,1.63l.213.435s.108-.67.122-.865.067-.208.067-.208a2.3,2.3,0,0,1-.1,1.253A5.35,5.35,0,0,0,722.751,263.178Z" transform="translate(-683.035 -240.528)"/>
    <ellipse id="椭圆_13" data-name="椭圆 13" class="cls-1" cx="3.78" cy="0.639" rx="3.78" ry="0.639" transform="translate(0 88.903)"/>
    <ellipse id="椭圆_15" data-name="椭圆 15" class="cls-10" cx="5.644" cy="0.954" rx="5.644" ry="0.954" transform="translate(58.713 88.462)"/>
    <path id="路径_161" data-name="路径 161" class="cls-10" d="M913.025,751.079a1.629,1.629,0,0,0,.538-.811.721.721,0,0,0-.375-.827,1.06,1.06,0,0,0-1,.348,1.334,1.334,0,0,1-.966.467,1.474,1.474,0,0,0,.455-1.377.577.577,0,0,0-.126-.281c-.192-.2-.539-.116-.769.045a2.865,2.865,0,0,0-.937,2.4,4.506,4.506,0,0,1-.013-.983,1.008,1.008,0,0,0-.372-.873,1.11,1.11,0,0,0-.561-.14,1.173,1.173,0,0,0-.918.261.9.9,0,0,0,.035,1.123,3.63,3.63,0,0,0,.95.761,2.124,2.124,0,0,1,.679.647.66.66,0,0,1,.049.115h2.058A5.677,5.677,0,0,0,913.025,751.079Z" transform="translate(-846.329 -663.225)"/>
    <path id="路径_162" data-name="路径 162" class="cls-13" d="M170.29,776.736a7.906,7.906,0,0,0,2.807-.529c.653-.463,3.317-1.015,3.478-.272s3.239,3.69.806,3.71-5.655-.379-6.3-.775S170.29,776.736,170.29,776.736Z" transform="translate(-169.048 -690.163)"/>
    <path id="路径_163" data-name="路径 163" class="cls-14" d="M177.421,786.5c-2.434.02-5.655-.379-6.3-.775-.494-.3-.691-1.38-.757-1.878h-.072s.14,1.739.785,2.133,3.87.794,6.3.775c.7,0,.945-.255.932-.626C178.212,786.358,177.944,786.5,177.421,786.5Z" transform="translate(-169.048 -697.28)"/>
  </g>
</svg>
