<svg xmlns="http://www.w3.org/2000/svg" width="126" height="94" viewBox="0 0 126 94">
  <defs>
    <style>
      .cls-1 {
        fill: #3f3d56;
      }

      .cls-2 {
        fill: #f2f2f2;
      }

      .cls-3 {
        fill: #ff6584;
      }

      .cls-4 {
        fill: #57d679;
      }

      .cls-5 {
        opacity: 0.1;
      }

      .cls-6 {
        fill: #a0616a;
      }

      .cls-7 {
        fill: #2f2e41;
      }

      .cls-8 {
        fill: #d0cde1;
      }
    </style>
  </defs>
  <g id="undraw_close_tab_uk6g" transform="translate(0 0)">
    <path id="路径_50" data-name="路径 50" class="cls-1" d="M179.211,255.291,165.854,296.4H122.624l-13.357-41.112,34.972-25.409Z" transform="translate(-95.541 -202.723)"/>
    <path id="路径_51" data-name="路径 51" class="cls-2" d="M388.576,530.88h-.213v-.213h-.041v.213h-.213v.042h.213v.213h.041v-.213h.213Z" transform="translate(-339.74 -465.207)"/>
    <path id="路径_52" data-name="路径 52" class="cls-2" d="M369.034,633.237h-.213v-.213h-.041v.213h-.213v.042h.213v.213h.041v-.213h.213Z" transform="translate(-322.634 -555.222)"/>
    <path id="路径_53" data-name="路径 53" class="cls-2" d="M480.7,663.945h-.213v-.213h-.042v.213h-.213v.042h.213v.213h.042v-.213h.213Z" transform="translate(-420.382 -582.072)"/>
    <circle id="椭圆_1" data-name="椭圆 1" class="cls-3" cx="0.468" cy="0.468" r="0.468" transform="translate(57.411 71.652)"/>
    <circle id="椭圆_2" data-name="椭圆 2" class="cls-2" cx="0.818" cy="0.818" r="0.818" transform="translate(20.951 51.311)"/>
    <path id="路径_54" data-name="路径 54" class="cls-2" d="M267.793,547.983l-.121-.027a27.633,27.633,0,0,1,53.888-.073l-.121.028a27.349,27.349,0,0,0-26.814-21.368A27.68,27.68,0,0,0,267.793,547.983Z" transform="translate(-246.216 -470.291)"/>
    <rect id="矩形_317" data-name="矩形 317" class="cls-2" width="1.235" height="48.784" transform="translate(62.631 45.003)"/>
    <path id="路径_55" data-name="路径 55" class="cls-4" d="M529.682,275.835c.079,17.059-11.923,30.943-11.923,30.943S505.63,293,505.551,275.946,517.474,245,517.474,245,529.6,258.776,529.682,275.835Z" transform="translate(-454.417 -224.615)"/>
    <rect id="矩形_318" data-name="矩形 318" class="cls-2" width="0.687" height="27.125" transform="translate(36.371 66.617)"/>
    <path id="路径_56" data-name="路径 56" class="cls-4" d="M348.868,521.193c.044,9.485-6.63,17.205-6.63,17.205s-6.744-7.658-6.788-17.143,6.63-17.205,6.63-17.205S348.825,511.708,348.868,521.193Z" transform="translate(-305.449 -451.12)"/>
    <path id="路径_57" data-name="路径 57" class="cls-5" d="M348.868,521.193c.044,9.485-6.63,17.205-6.63,17.205s-6.744-7.658-6.788-17.143,6.63-17.205,6.63-17.205S348.825,511.708,348.868,521.193Z" transform="translate(-305.449 -451.12)"/>
    <rect id="矩形_319" data-name="矩形 319" class="cls-2" width="0.687" height="27.125" transform="translate(27.514 66.617)"/>
    <path id="路径_58" data-name="路径 58" class="cls-4" d="M277.8,521.193c.044,9.485-6.63,17.205-6.63,17.205s-6.744-7.658-6.788-17.143,6.63-17.205,6.63-17.205S277.759,511.708,277.8,521.193Z" transform="translate(-243.232 -451.12)"/>
    <path id="路径_59" data-name="路径 59" class="cls-2" d="M296.454,312.207h-.213v-.213H296.2v.213h-.213v.042h.213v.213h.042v-.213h.213Z" transform="translate(-259.099 -273.508)"/>
    <path id="路径_60" data-name="路径 60" class="cls-2" d="M276.913,414.565H276.7v-.213h-.042v.213h-.213v.042h.213v.213h.042v-.213h.213Z" transform="translate(-241.993 -363.24)"/>
    <path id="路径_61" data-name="路径 61" class="cls-2" d="M388.576,445.272h-.213v-.213h-.041v.213h-.213v.041h.213v.213h.041v-.213h.213Z" transform="translate(-339.74 -390.159)"/>
    <circle id="椭圆_3" data-name="椭圆 3" class="cls-3" cx="0.468" cy="0.468" r="0.468" transform="translate(45.931 44.68)"/>
    <path id="路径_62" data-name="路径 62" class="cls-1" d="M650.166,323.054a9.587,9.587,0,1,1,4.448,3.571,3.1,3.1,0,1,1-4.448-3.571Z" transform="translate(-579.577 -278.769)"/>
    <ellipse id="椭圆_4" data-name="椭圆 4" class="cls-4" cx="0.557" cy="4.095" rx="0.557" ry="4.095" transform="translate(76.016 35.771) rotate(-30)"/>
    <ellipse id="椭圆_5" data-name="椭圆 5" class="cls-4" cx="4.095" cy="0.557" rx="4.095" ry="0.557" transform="translate(76.016 42.307) rotate(-60)"/>
    <circle id="椭圆_6" data-name="椭圆 6" class="cls-1" cx="5.026" cy="5.026" r="5.026" transform="translate(4.937 83.628)"/>
    <circle id="椭圆_7" data-name="椭圆 7" class="cls-1" cx="3.624" cy="3.624" r="3.624" transform="translate(6.34 78.367)"/>
    <circle id="椭圆_8" data-name="椭圆 8" class="cls-1" cx="2.572" cy="2.572" r="2.572" transform="translate(7.392 74.094)"/>
    <path id="路径_63" data-name="路径 63" class="cls-1" d="M94.5,561.346q9.759-1.283,18.766-2.181l-2.31-3.9c.8-.225,4.279,2.034,4.279,2.034L112.3,546.006c4.012.454,5.878,11.968,5.878,11.968l4.55-3.835-2.241,4.343c18.374-1.618,34.229-2.116,47.556-1.992l-1.977-3.341c.8-.225,4.279,2.034,4.279,2.034L167.4,543.9c4.012.454,5.878,11.968,5.878,11.968l4.55-3.835-2.374,4.6c11.17.314,20.271,1.059,27.292,1.871-1.972-5.192-8.864-10.187-8.864-10.187,5.3,1.4,8.059,3.665,9.485,5.768a77.663,77.663,0,0,0-5.725-31.386s10.688,20.323,9.075,33.866l-.205,2.406a127.312,127.312,0,0,1,13.979,2.456Z" transform="translate(-94.496 -467.423)"/>
    <path id="路径_64" data-name="路径 64" class="cls-6" d="M923.669,722.193l-.621,7.14-2.794.621-.621-1.863s1.087-5.122,1.087-6.054Z" transform="translate(-816.983 -641.724)"/>
    <path id="路径_65" data-name="路径 65" class="cls-6" d="M872.691,683.732s1.242,3.1,1.708,3.415-1.4,4.346-1.4,4.346l-2.794-.466s.931-3.26.155-5.122Z" transform="translate(-773.559 -608.23)"/>
    <path id="路径_66" data-name="路径 66" class="cls-7" d="M863.529,697.943a2.908,2.908,0,0,1,1.63,2.1,17.063,17.063,0,0,1,.466,1.863l-.776,1.707h-.466a13.594,13.594,0,0,0-.621,3.57c.155.931-1.087,4.5-3.26,4.346s-1.707-2.794-1.707-2.794l1.087-5.433s0-1.4.31-1.4,2.794.466,2.794.466v.466A5.032,5.032,0,0,0,863.529,697.943Z" transform="translate(-763.548 -620.656)"/>
    <path id="路径_67" data-name="路径 67" class="cls-7" d="M912.077,761.51v-.931s3.26.466,3.26.931V762.6s2.794,5.9-.31,5.9-3.725-1.242-3.725-1.242v-1.707s-1.552-.776-1.552-1.242,1.515-4.579,1.515-4.579S911.3,762.131,912.077,761.51Z" transform="translate(-808.34 -674.677)"/>
    <circle id="椭圆_9" data-name="椭圆 9" class="cls-6" cx="4.967" cy="4.967" r="4.967" transform="translate(102.496 1.781)"/>
    <path id="路径_68" data-name="路径 68" class="cls-6" d="M923.685,142.208s-.621,2.949-.621,3.26-2.949,1.707-2.949,1.707l-2.639-.466-.931-2.794s1.552-2.328,1.552-3.26Z" transform="translate(-814.282 -131.656)"/>
    <path id="路径_69" data-name="路径 69" class="cls-8" d="M873.569,161.176s-1.6,2.61-3.931,1.834a3.211,3.211,0,0,1-2.278-3L859.7,162.7l1.4,11.332-1.242,13.194.931,1.707h13.66a12.928,12.928,0,0,1,.621-2.328c.155,0,.466-.466.31-.621s-.466-.31-.31-.776.31-5.588.31-5.588l4.657-13.5Z" transform="translate(-764.582 -148.578)"/>
    <path id="路径_70" data-name="路径 70" class="cls-6" d="M990.241,394.747l-2.794,3.725s-.466-3.881-1.087-4.036l1.552-1.087Z" transform="translate(-875.327 -353.38)"/>
    <path id="路径_71" data-name="路径 71" class="cls-6" d="M743.936,380.993s-4.191,2.639-3.725,4.346,5.278-2.949,5.278-3.1A10.878,10.878,0,0,0,743.936,380.993Z" transform="translate(-659.733 -342.543)"/>
    <path id="路径_72" data-name="路径 72" class="cls-7" d="M845.536,377.751h.31l.466,2.173a5.186,5.186,0,0,1,1.242,5.588l-2.484,16.3-.31,18.938-2.794.776-3.1-.621-.776-25.3s-1.087-2.328-.621-3.1-.155-.621-.155-.621l-3.26,9s1.087,2.949,0,3.881c0,0,.155.466,0,.621s-.931.776-.621,1.087.466,0,.466.466a24.225,24.225,0,0,1,.931,9.314l-2.018,3.1-1.863-1.087-3.415-9.624s.776-1.4,0-1.708-.931-.621-.621-1.087a3.558,3.558,0,0,0-.155-2.794,2.775,2.775,0,0,1,0-2.018l1.708-15.678s-.776-4.191,1.863-6.364l.466-1.708S834.67,380.08,845.536,377.751Z" transform="translate(-735.59 -340.28)"/>
    <path id="路径_73" data-name="路径 73" class="cls-7" d="M926.052,71.763s-1.577-3.417-4.6-2.628-4.731,1.971-4.863,3.154a16.872,16.872,0,0,0,.066,2.957s.329-2.431,2.431-1.906a18.756,18.756,0,0,0,5.388.131L925,78.2s.591-.854,1.248-.329S928.155,72.815,926.052,71.763Z" transform="translate(-814.282 -69.017)"/>
    <path id="路径_74" data-name="路径 74" class="cls-8" d="M991.155,208.617h2.328a6.309,6.309,0,0,1,1.863,4.967l1.087,9.158a18.143,18.143,0,0,1-1.863,7.761l-2.018,3.881a2.909,2.909,0,0,0-3.1-1.863l1.242-3.26v-.776a3.393,3.393,0,0,0,.466-.776c0-.155-.621-.155-.155-.466s.931-3.415.931-3.415a2.621,2.621,0,0,0-.31-.776c-.155-.155.155-.621.155-.621l-.31-.466-2.018-7.606Z" transform="translate(-878.027 -191.511)"/>
    <path id="路径_75" data-name="路径 75" class="cls-8" d="M779.148,177.726l-2.639.466a10.154,10.154,0,0,0-2.173,3.415l-1.242,5.588-2.018,4.036s-2.328,2.328-4.036,7.606l-2.484,4.657,2.639,1.552s7.3-8.537,8.227-11.487l4.036-7.761Z" transform="translate(-681.137 -164.07)"/>
  </g>
</svg>
